G04 #@! TF.FileFunction,Copper,L1,Top,Signal*
%FSLAX46Y46*%
G04 Gerber Fmt 4.6, Leading zero omitted, Abs format (unit mm)*
G04 Created by KiCad (PCBNEW 4.0.6-e0-6349~52~ubuntu16.10.1) date Mon May  8 18:47:24 2017*
%MOMM*%
%LPD*%
G01*
G04 APERTURE LIST*
%ADD10C,0.100000*%
%ADD11R,1.727200X2.032000*%
%ADD12O,1.727200X2.032000*%
%ADD13R,1.300000X1.500000*%
%ADD14R,3.200000X1.000000*%
%ADD15C,1.998980*%
%ADD16C,1.524000*%
%ADD17C,0.600000*%
%ADD18C,0.250000*%
%ADD19C,0.254000*%
G04 APERTURE END LIST*
D10*
D11*
X82780000Y-99000000D03*
D12*
X80240000Y-99000000D03*
X77700000Y-99000000D03*
D13*
X101739240Y-146100000D03*
X101739240Y-143400000D03*
X101739240Y-139600000D03*
X101739240Y-136900000D03*
X101739240Y-133100000D03*
X101739240Y-130400000D03*
X101800000Y-126600000D03*
X101800000Y-123900000D03*
X101800000Y-120100000D03*
X101800000Y-117400000D03*
X101800000Y-113600000D03*
X101800000Y-110900000D03*
X101739240Y-107100000D03*
X101739240Y-104400000D03*
X116700000Y-146250000D03*
X116700000Y-143550000D03*
X116639240Y-139600000D03*
X116639240Y-136900000D03*
X116639240Y-133100000D03*
X116639240Y-130400000D03*
X116600000Y-126600000D03*
X116600000Y-123900000D03*
X116600000Y-120100000D03*
X116600000Y-117400000D03*
X116600000Y-113600000D03*
X116600000Y-110900000D03*
X116600000Y-107100000D03*
X116600000Y-104400000D03*
D14*
X105289944Y-150000000D03*
X112089944Y-150000000D03*
X112089944Y-146000000D03*
X105289944Y-146000000D03*
X105289944Y-143500000D03*
X112089944Y-143500000D03*
X112089944Y-139500000D03*
X105289944Y-139500000D03*
X105289944Y-137000000D03*
X112089944Y-137000000D03*
X112089944Y-133000000D03*
X105289944Y-133000000D03*
X105289944Y-130500000D03*
X112089944Y-130500000D03*
X112089944Y-126500000D03*
X105289944Y-126500000D03*
X105289944Y-124000000D03*
X112089944Y-124000000D03*
X112089944Y-120000000D03*
X105289944Y-120000000D03*
X105289944Y-117500000D03*
X112089944Y-117500000D03*
X112089944Y-113500000D03*
X105289944Y-113500000D03*
X105289944Y-111000000D03*
X112089944Y-111000000D03*
X112089944Y-107000000D03*
X105289944Y-107000000D03*
X119600000Y-150000000D03*
X126400000Y-150000000D03*
X126400000Y-146000000D03*
X119600000Y-146000000D03*
X119600000Y-143500000D03*
X126400000Y-143500000D03*
X126400000Y-139500000D03*
X119600000Y-139500000D03*
X119600000Y-137000000D03*
X126400000Y-137000000D03*
X126400000Y-133000000D03*
X119600000Y-133000000D03*
X119600000Y-130500000D03*
X126400000Y-130500000D03*
X126400000Y-126500000D03*
X119600000Y-126500000D03*
X119600000Y-124000000D03*
X126400000Y-124000000D03*
X126400000Y-120000000D03*
X119600000Y-120000000D03*
X119600000Y-117500000D03*
X126400000Y-117500000D03*
X126400000Y-113500000D03*
X119600000Y-113500000D03*
X119600000Y-111000000D03*
X126400000Y-111000000D03*
X126400000Y-107000000D03*
X119600000Y-107000000D03*
X119600000Y-104500000D03*
X126400000Y-104500000D03*
X126400000Y-100500000D03*
X119600000Y-100500000D03*
D15*
X109000000Y-99000000D03*
X106460000Y-99000000D03*
X111540000Y-99000000D03*
D16*
X124250000Y-90500000D03*
X124250000Y-92500000D03*
X124250000Y-94500000D03*
X121750000Y-90500000D03*
X121750000Y-92500000D03*
X121750000Y-94500000D03*
D17*
X83000000Y-105000000D03*
D18*
X82780000Y-99000000D02*
X82780000Y-100780000D01*
X82780000Y-100780000D02*
X85000000Y-103000000D01*
X85000000Y-103000000D02*
X98000000Y-103000000D01*
X98000000Y-103000000D02*
X101000000Y-100000000D01*
X101000000Y-100000000D02*
X101000000Y-96000000D01*
X101000000Y-96000000D02*
X107587001Y-89412999D01*
X123488001Y-89738001D02*
X124250000Y-90500000D01*
X107587001Y-89412999D02*
X123162999Y-89412999D01*
X123162999Y-89412999D02*
X123488001Y-89738001D01*
X83299999Y-105299999D02*
X83000000Y-105000000D01*
X84150011Y-106150011D02*
X83299999Y-105299999D01*
X97150011Y-106150011D02*
X84150011Y-106150011D01*
X100000000Y-109000000D02*
X97150011Y-106150011D01*
X101739240Y-146000000D02*
X100000000Y-144260760D01*
X101739240Y-146100000D02*
X101739240Y-146000000D01*
X100000000Y-144260760D02*
X100000000Y-109000000D01*
X105289944Y-150000000D02*
X105289944Y-149250000D01*
X105289944Y-149250000D02*
X102139944Y-146100000D01*
X102139944Y-146100000D02*
X101739240Y-146100000D01*
X112089944Y-150000000D02*
X105289944Y-150000000D01*
X121750000Y-90500000D02*
X120672370Y-90500000D01*
X120672370Y-90500000D02*
X115850000Y-95322370D01*
X115850000Y-95322370D02*
X115850000Y-96000000D01*
X102889944Y-105700000D02*
X97000000Y-105700000D01*
X97000000Y-105700000D02*
X85700000Y-105700000D01*
X115850000Y-96000000D02*
X106700000Y-96000000D01*
X106700000Y-96000000D02*
X97000000Y-105700000D01*
X119600000Y-100500000D02*
X119600000Y-99750000D01*
X119600000Y-99750000D02*
X115850000Y-96000000D01*
X127100000Y-100500000D02*
X127100000Y-101250000D01*
X127100000Y-101250000D02*
X128500000Y-102650000D01*
X128500000Y-106700000D02*
X128200000Y-107000000D01*
X128500000Y-102650000D02*
X128500000Y-106700000D01*
X128200000Y-107000000D02*
X127100000Y-107000000D01*
X127100000Y-107000000D02*
X127100000Y-107750000D01*
X127100000Y-107750000D02*
X128500000Y-109150000D01*
X128500000Y-109150000D02*
X128500000Y-113200000D01*
X128500000Y-113200000D02*
X128200000Y-113500000D01*
X128200000Y-113500000D02*
X127100000Y-113500000D01*
X127100000Y-113500000D02*
X127100000Y-114250000D01*
X127100000Y-114250000D02*
X128500000Y-115650000D01*
X128500000Y-115650000D02*
X128500000Y-119689944D01*
X128500000Y-119689944D02*
X128189944Y-120000000D01*
X128189944Y-120000000D02*
X127089944Y-120000000D01*
X127089944Y-120000000D02*
X127089944Y-120750000D01*
X127089944Y-120750000D02*
X128500000Y-122160056D01*
X128500000Y-122160056D02*
X128500000Y-126200000D01*
X128500000Y-126200000D02*
X128200000Y-126500000D01*
X128200000Y-126500000D02*
X127100000Y-126500000D01*
X127100000Y-126500000D02*
X127100000Y-127250000D01*
X127100000Y-127250000D02*
X128500000Y-128650000D01*
X128500000Y-128650000D02*
X128500000Y-132689944D01*
X128500000Y-132689944D02*
X128189944Y-133000000D01*
X128189944Y-133000000D02*
X127089944Y-133000000D01*
X127089944Y-133000000D02*
X127089944Y-133750000D01*
X127089944Y-133750000D02*
X128500000Y-135160056D01*
X128500000Y-135160056D02*
X128500000Y-139200000D01*
X128500000Y-139200000D02*
X128200000Y-139500000D01*
X128200000Y-139500000D02*
X127100000Y-139500000D01*
X127100000Y-139500000D02*
X127100000Y-140250000D01*
X127100000Y-140250000D02*
X128500000Y-141650000D01*
X128500000Y-141650000D02*
X128500000Y-145700000D01*
X128500000Y-145700000D02*
X128200000Y-146000000D01*
X128200000Y-146000000D02*
X127100000Y-146000000D01*
X127100000Y-99750000D02*
X125350000Y-98000000D01*
X127100000Y-100500000D02*
X127100000Y-99750000D01*
X80974000Y-101000000D02*
X80240000Y-100266000D01*
X104189944Y-107000000D02*
X102889944Y-105700000D01*
X105289944Y-107000000D02*
X104189944Y-107000000D01*
X85700000Y-105700000D02*
X81000000Y-101000000D01*
X80240000Y-100266000D02*
X80240000Y-99000000D01*
X81000000Y-101000000D02*
X80974000Y-101000000D01*
X80240000Y-99152400D02*
X80240000Y-99000000D01*
X120300000Y-146000000D02*
X127100000Y-146000000D01*
X112089944Y-107000000D02*
X112089944Y-107750000D01*
X112089944Y-107750000D02*
X114014945Y-109675001D01*
X114014945Y-109675001D02*
X114014945Y-112674999D01*
X112089944Y-139500000D02*
X112089944Y-140250000D01*
X112089944Y-140250000D02*
X114014945Y-142175001D01*
X114014945Y-142175001D02*
X114014945Y-145174999D01*
X114014945Y-145174999D02*
X113189944Y-146000000D01*
X113189944Y-146000000D02*
X112089944Y-146000000D01*
X112089944Y-133000000D02*
X112089944Y-133750000D01*
X112089944Y-133750000D02*
X114014945Y-135675001D01*
X114014945Y-135675001D02*
X114014945Y-138674999D01*
X114014945Y-138674999D02*
X113189944Y-139500000D01*
X113189944Y-139500000D02*
X112089944Y-139500000D01*
X112089944Y-126500000D02*
X112089944Y-127250000D01*
X114014945Y-129175001D02*
X114014945Y-132174999D01*
X112089944Y-127250000D02*
X114014945Y-129175001D01*
X114014945Y-132174999D02*
X113189944Y-133000000D01*
X113189944Y-133000000D02*
X112089944Y-133000000D01*
X112089944Y-120000000D02*
X112089944Y-120750000D01*
X112089944Y-120750000D02*
X114014945Y-122675001D01*
X114014945Y-122675001D02*
X114014945Y-125674999D01*
X114014945Y-125674999D02*
X113189944Y-126500000D01*
X113189944Y-126500000D02*
X112089944Y-126500000D01*
X112089944Y-113500000D02*
X112089944Y-114250000D01*
X112089944Y-114250000D02*
X114014945Y-116175001D01*
X114014945Y-116175001D02*
X114014945Y-119174999D01*
X114014945Y-119174999D02*
X113189944Y-120000000D01*
X113189944Y-120000000D02*
X112089944Y-120000000D01*
X112089944Y-107000000D02*
X113189944Y-107000000D01*
X114014945Y-112674999D02*
X113189944Y-113500000D01*
X113189944Y-113500000D02*
X112089944Y-113500000D01*
X105289944Y-146000000D02*
X112089944Y-146000000D01*
X105289944Y-139500000D02*
X112089944Y-139500000D01*
X105289944Y-133000000D02*
X112089944Y-133000000D01*
X105289944Y-126500000D02*
X107139944Y-126500000D01*
X107139944Y-126500000D02*
X112089944Y-126500000D01*
X105289944Y-120000000D02*
X112089944Y-120000000D01*
X105289944Y-113500000D02*
X112089944Y-113500000D01*
X105289944Y-107000000D02*
X112089944Y-107000000D01*
X120300000Y-139500000D02*
X127100000Y-139500000D01*
X120289944Y-133000000D02*
X122139944Y-133000000D01*
X122139944Y-133000000D02*
X127089944Y-133000000D01*
X120300000Y-126500000D02*
X127100000Y-126500000D01*
X120289944Y-120000000D02*
X127089944Y-120000000D01*
X120300000Y-113500000D02*
X127100000Y-113500000D01*
X120300000Y-107000000D02*
X127100000Y-107000000D01*
X120300000Y-100500000D02*
X127100000Y-100500000D01*
X116700000Y-104500000D02*
X116600000Y-104400000D01*
X120300000Y-104500000D02*
X127100000Y-104500000D01*
X101739240Y-143400000D02*
X101739240Y-139600000D01*
X101739240Y-143400000D02*
X105189944Y-143400000D01*
X105189944Y-143400000D02*
X105289944Y-143500000D01*
X105289944Y-143500000D02*
X107139944Y-143500000D01*
X107139944Y-143500000D02*
X112089944Y-143500000D01*
X101739240Y-136900000D02*
X101739240Y-135900000D01*
X101739240Y-135900000D02*
X101739240Y-133100000D01*
X105289944Y-137000000D02*
X101839240Y-137000000D01*
X101839240Y-137000000D02*
X101739240Y-136900000D01*
X105289944Y-137000000D02*
X107139944Y-137000000D01*
X107139944Y-137000000D02*
X112089944Y-137000000D01*
X101739240Y-130400000D02*
X101739240Y-126660760D01*
X101739240Y-126660760D02*
X101800000Y-126600000D01*
X101739240Y-130400000D02*
X105189944Y-130400000D01*
X105189944Y-130400000D02*
X105289944Y-130500000D01*
X112089944Y-130500000D02*
X105289944Y-130500000D01*
X101800000Y-123900000D02*
X101800000Y-120100000D01*
X101800000Y-123900000D02*
X105189944Y-123900000D01*
X105189944Y-123900000D02*
X105289944Y-124000000D01*
X105289944Y-124000000D02*
X107139944Y-124000000D01*
X107139944Y-124000000D02*
X112089944Y-124000000D01*
X101800000Y-117400000D02*
X101800000Y-113600000D01*
X105289944Y-117500000D02*
X101900000Y-117500000D01*
X101900000Y-117500000D02*
X101800000Y-117400000D01*
X105289944Y-117500000D02*
X112089944Y-117500000D01*
X101800000Y-110900000D02*
X101800000Y-107160760D01*
X101800000Y-107160760D02*
X101739240Y-107100000D01*
X101800000Y-110900000D02*
X105189944Y-110900000D01*
X105189944Y-110900000D02*
X105289944Y-111000000D01*
X105289944Y-111000000D02*
X112089944Y-111000000D01*
X116700000Y-146250000D02*
X116700000Y-146150000D01*
X116700000Y-146150000D02*
X115000000Y-144450000D01*
X115000000Y-144450000D02*
X115000000Y-106000000D01*
X115000000Y-106000000D02*
X113400000Y-104400000D01*
X113400000Y-104400000D02*
X102639240Y-104400000D01*
X102639240Y-104400000D02*
X101739240Y-104400000D01*
X120300000Y-150000000D02*
X119200000Y-150000000D01*
X119200000Y-150000000D02*
X116700000Y-147500000D01*
X116700000Y-147500000D02*
X116700000Y-147250000D01*
X116700000Y-147250000D02*
X116700000Y-146250000D01*
X127100000Y-150000000D02*
X120300000Y-150000000D01*
X116700000Y-146600000D02*
X116700000Y-146250000D01*
X120300000Y-143500000D02*
X116750000Y-143500000D01*
X116750000Y-143500000D02*
X116700000Y-143550000D01*
X120250000Y-143550000D02*
X120300000Y-143500000D01*
X116700000Y-139700000D02*
X116639240Y-139639240D01*
X116639240Y-139639240D02*
X116639240Y-139600000D01*
X116700000Y-143550000D02*
X116700000Y-139700000D01*
X120300000Y-143500000D02*
X127100000Y-143500000D01*
X120289944Y-137000000D02*
X116739240Y-137000000D01*
X116739240Y-137000000D02*
X116639240Y-136900000D01*
X116639240Y-136900000D02*
X116639240Y-135900000D01*
X116639240Y-135900000D02*
X116639240Y-133100000D01*
X120289944Y-137000000D02*
X127089944Y-137000000D01*
X120300000Y-130500000D02*
X116739240Y-130500000D01*
X116739240Y-130500000D02*
X116639240Y-130400000D01*
X116639240Y-130400000D02*
X116639240Y-126639240D01*
X116639240Y-126639240D02*
X116600000Y-126600000D01*
X120300000Y-130500000D02*
X127100000Y-130500000D01*
X120289944Y-124000000D02*
X116700000Y-124000000D01*
X116700000Y-124000000D02*
X116600000Y-123900000D01*
X116600000Y-123900000D02*
X116600000Y-120100000D01*
X120289944Y-124000000D02*
X127089944Y-124000000D01*
X120300000Y-117500000D02*
X116700000Y-117500000D01*
X116700000Y-117500000D02*
X116600000Y-117400000D01*
X116600000Y-113600000D02*
X116600000Y-114600000D01*
X116600000Y-114600000D02*
X116600000Y-117400000D01*
X120300000Y-117500000D02*
X127100000Y-117500000D01*
X120300000Y-111000000D02*
X116700000Y-111000000D01*
X116700000Y-111000000D02*
X116600000Y-110900000D01*
X116600000Y-107100000D02*
X116600000Y-108100000D01*
X116600000Y-108100000D02*
X116600000Y-110900000D01*
X120300000Y-111000000D02*
X127100000Y-111000000D01*
D19*
G36*
X76408046Y-98085680D02*
X76214816Y-98638087D01*
X76359076Y-98873000D01*
X77573000Y-98873000D01*
X77573000Y-98853000D01*
X77827000Y-98853000D01*
X77827000Y-98873000D01*
X77847000Y-98873000D01*
X77847000Y-99127000D01*
X77827000Y-99127000D01*
X77827000Y-100486217D01*
X78059026Y-100607358D01*
X78074791Y-100604709D01*
X78602036Y-100350732D01*
X78973539Y-99934931D01*
X79180330Y-100244415D01*
X79520983Y-100472032D01*
X79537852Y-100556839D01*
X79702599Y-100803401D01*
X80436599Y-101537401D01*
X80514954Y-101589756D01*
X82990189Y-104064991D01*
X82814833Y-104064838D01*
X82471057Y-104206883D01*
X82207808Y-104469673D01*
X82065162Y-104813201D01*
X82064838Y-105185167D01*
X82206883Y-105528943D01*
X82469673Y-105792192D01*
X82813201Y-105934838D01*
X82860077Y-105934879D01*
X83612609Y-106687412D01*
X83721246Y-106760000D01*
X83859172Y-106852159D01*
X84150011Y-106910011D01*
X96835209Y-106910011D01*
X99240000Y-109314802D01*
X99240000Y-144260760D01*
X99297852Y-144551599D01*
X99462599Y-144798161D01*
X100441800Y-145777362D01*
X100441800Y-146850000D01*
X100486078Y-147085317D01*
X100625150Y-147301441D01*
X100837350Y-147446431D01*
X101089240Y-147497440D01*
X102389240Y-147497440D01*
X102450967Y-147485825D01*
X103817702Y-148852560D01*
X103689944Y-148852560D01*
X103454627Y-148896838D01*
X103238503Y-149035910D01*
X103093513Y-149248110D01*
X103042504Y-149500000D01*
X103042504Y-150500000D01*
X103086782Y-150735317D01*
X103225854Y-150951441D01*
X103438054Y-151096431D01*
X103689944Y-151147440D01*
X106889944Y-151147440D01*
X107125261Y-151103162D01*
X107341385Y-150964090D01*
X107480834Y-150760000D01*
X109902665Y-150760000D01*
X110025854Y-150951441D01*
X110238054Y-151096431D01*
X110489944Y-151147440D01*
X113689944Y-151147440D01*
X113925261Y-151103162D01*
X114141385Y-150964090D01*
X114286375Y-150751890D01*
X114337384Y-150500000D01*
X114337384Y-149500000D01*
X114293106Y-149264683D01*
X114154034Y-149048559D01*
X113941834Y-148903569D01*
X113689944Y-148852560D01*
X110489944Y-148852560D01*
X110254627Y-148896838D01*
X110038503Y-149035910D01*
X109899054Y-149240000D01*
X107477223Y-149240000D01*
X107354034Y-149048559D01*
X107141834Y-148903569D01*
X106889944Y-148852560D01*
X105920864Y-148852560D01*
X105827345Y-148712599D01*
X104262186Y-147147440D01*
X106889944Y-147147440D01*
X107125261Y-147103162D01*
X107341385Y-146964090D01*
X107480834Y-146760000D01*
X109902665Y-146760000D01*
X110025854Y-146951441D01*
X110238054Y-147096431D01*
X110489944Y-147147440D01*
X113689944Y-147147440D01*
X113925261Y-147103162D01*
X114141385Y-146964090D01*
X114286375Y-146751890D01*
X114337384Y-146500000D01*
X114337384Y-145927362D01*
X114552346Y-145712400D01*
X114717093Y-145465838D01*
X114754248Y-145279050D01*
X115402560Y-145927362D01*
X115402560Y-147000000D01*
X115446838Y-147235317D01*
X115585910Y-147451441D01*
X115798110Y-147596431D01*
X115965942Y-147630418D01*
X115997852Y-147790839D01*
X116162599Y-148037401D01*
X117398473Y-149273275D01*
X117352560Y-149500000D01*
X117352560Y-150500000D01*
X117396838Y-150735317D01*
X117535910Y-150951441D01*
X117748110Y-151096431D01*
X118000000Y-151147440D01*
X121200000Y-151147440D01*
X121435317Y-151103162D01*
X121651441Y-150964090D01*
X121790890Y-150760000D01*
X124212721Y-150760000D01*
X124335910Y-150951441D01*
X124548110Y-151096431D01*
X124800000Y-151147440D01*
X126848468Y-151147440D01*
X126705908Y-151290000D01*
X77294092Y-151290000D01*
X75710000Y-149705908D01*
X75710000Y-99361913D01*
X76214816Y-99361913D01*
X76408046Y-99914320D01*
X76797964Y-100350732D01*
X77325209Y-100604709D01*
X77340974Y-100607358D01*
X77573000Y-100486217D01*
X77573000Y-99127000D01*
X76359076Y-99127000D01*
X76214816Y-99361913D01*
X75710000Y-99361913D01*
X75710000Y-97710000D01*
X76743702Y-97710000D01*
X76408046Y-98085680D01*
X76408046Y-98085680D01*
G37*
X76408046Y-98085680D02*
X76214816Y-98638087D01*
X76359076Y-98873000D01*
X77573000Y-98873000D01*
X77573000Y-98853000D01*
X77827000Y-98853000D01*
X77827000Y-98873000D01*
X77847000Y-98873000D01*
X77847000Y-99127000D01*
X77827000Y-99127000D01*
X77827000Y-100486217D01*
X78059026Y-100607358D01*
X78074791Y-100604709D01*
X78602036Y-100350732D01*
X78973539Y-99934931D01*
X79180330Y-100244415D01*
X79520983Y-100472032D01*
X79537852Y-100556839D01*
X79702599Y-100803401D01*
X80436599Y-101537401D01*
X80514954Y-101589756D01*
X82990189Y-104064991D01*
X82814833Y-104064838D01*
X82471057Y-104206883D01*
X82207808Y-104469673D01*
X82065162Y-104813201D01*
X82064838Y-105185167D01*
X82206883Y-105528943D01*
X82469673Y-105792192D01*
X82813201Y-105934838D01*
X82860077Y-105934879D01*
X83612609Y-106687412D01*
X83721246Y-106760000D01*
X83859172Y-106852159D01*
X84150011Y-106910011D01*
X96835209Y-106910011D01*
X99240000Y-109314802D01*
X99240000Y-144260760D01*
X99297852Y-144551599D01*
X99462599Y-144798161D01*
X100441800Y-145777362D01*
X100441800Y-146850000D01*
X100486078Y-147085317D01*
X100625150Y-147301441D01*
X100837350Y-147446431D01*
X101089240Y-147497440D01*
X102389240Y-147497440D01*
X102450967Y-147485825D01*
X103817702Y-148852560D01*
X103689944Y-148852560D01*
X103454627Y-148896838D01*
X103238503Y-149035910D01*
X103093513Y-149248110D01*
X103042504Y-149500000D01*
X103042504Y-150500000D01*
X103086782Y-150735317D01*
X103225854Y-150951441D01*
X103438054Y-151096431D01*
X103689944Y-151147440D01*
X106889944Y-151147440D01*
X107125261Y-151103162D01*
X107341385Y-150964090D01*
X107480834Y-150760000D01*
X109902665Y-150760000D01*
X110025854Y-150951441D01*
X110238054Y-151096431D01*
X110489944Y-151147440D01*
X113689944Y-151147440D01*
X113925261Y-151103162D01*
X114141385Y-150964090D01*
X114286375Y-150751890D01*
X114337384Y-150500000D01*
X114337384Y-149500000D01*
X114293106Y-149264683D01*
X114154034Y-149048559D01*
X113941834Y-148903569D01*
X113689944Y-148852560D01*
X110489944Y-148852560D01*
X110254627Y-148896838D01*
X110038503Y-149035910D01*
X109899054Y-149240000D01*
X107477223Y-149240000D01*
X107354034Y-149048559D01*
X107141834Y-148903569D01*
X106889944Y-148852560D01*
X105920864Y-148852560D01*
X105827345Y-148712599D01*
X104262186Y-147147440D01*
X106889944Y-147147440D01*
X107125261Y-147103162D01*
X107341385Y-146964090D01*
X107480834Y-146760000D01*
X109902665Y-146760000D01*
X110025854Y-146951441D01*
X110238054Y-147096431D01*
X110489944Y-147147440D01*
X113689944Y-147147440D01*
X113925261Y-147103162D01*
X114141385Y-146964090D01*
X114286375Y-146751890D01*
X114337384Y-146500000D01*
X114337384Y-145927362D01*
X114552346Y-145712400D01*
X114717093Y-145465838D01*
X114754248Y-145279050D01*
X115402560Y-145927362D01*
X115402560Y-147000000D01*
X115446838Y-147235317D01*
X115585910Y-147451441D01*
X115798110Y-147596431D01*
X115965942Y-147630418D01*
X115997852Y-147790839D01*
X116162599Y-148037401D01*
X117398473Y-149273275D01*
X117352560Y-149500000D01*
X117352560Y-150500000D01*
X117396838Y-150735317D01*
X117535910Y-150951441D01*
X117748110Y-151096431D01*
X118000000Y-151147440D01*
X121200000Y-151147440D01*
X121435317Y-151103162D01*
X121651441Y-150964090D01*
X121790890Y-150760000D01*
X124212721Y-150760000D01*
X124335910Y-150951441D01*
X124548110Y-151096431D01*
X124800000Y-151147440D01*
X126848468Y-151147440D01*
X126705908Y-151290000D01*
X77294092Y-151290000D01*
X75710000Y-149705908D01*
X75710000Y-99361913D01*
X76214816Y-99361913D01*
X76408046Y-99914320D01*
X76797964Y-100350732D01*
X77325209Y-100604709D01*
X77340974Y-100607358D01*
X77573000Y-100486217D01*
X77573000Y-99127000D01*
X76359076Y-99127000D01*
X76214816Y-99361913D01*
X75710000Y-99361913D01*
X75710000Y-97710000D01*
X76743702Y-97710000D01*
X76408046Y-98085680D01*
G36*
X118127758Y-99352560D02*
X118000000Y-99352560D01*
X117764683Y-99396838D01*
X117548559Y-99535910D01*
X117403569Y-99748110D01*
X117352560Y-100000000D01*
X117352560Y-101000000D01*
X117396838Y-101235317D01*
X117535910Y-101451441D01*
X117748110Y-101596431D01*
X118000000Y-101647440D01*
X121200000Y-101647440D01*
X121435317Y-101603162D01*
X121651441Y-101464090D01*
X121790890Y-101260000D01*
X124212721Y-101260000D01*
X124335910Y-101451441D01*
X124548110Y-101596431D01*
X124800000Y-101647440D01*
X126469080Y-101647440D01*
X126562599Y-101787401D01*
X127740000Y-102964802D01*
X127740000Y-103365000D01*
X126685750Y-103365000D01*
X126527000Y-103523750D01*
X126527000Y-104373000D01*
X126547000Y-104373000D01*
X126547000Y-104627000D01*
X126527000Y-104627000D01*
X126527000Y-105476250D01*
X126685750Y-105635000D01*
X127740000Y-105635000D01*
X127740000Y-105852560D01*
X124800000Y-105852560D01*
X124564683Y-105896838D01*
X124348559Y-106035910D01*
X124209110Y-106240000D01*
X121787279Y-106240000D01*
X121664090Y-106048559D01*
X121451890Y-105903569D01*
X121200000Y-105852560D01*
X118000000Y-105852560D01*
X117764683Y-105896838D01*
X117728122Y-105920365D01*
X117714090Y-105898559D01*
X117501890Y-105753569D01*
X117468510Y-105746809D01*
X117609699Y-105688327D01*
X117724728Y-105573297D01*
X117873691Y-105635000D01*
X119314250Y-105635000D01*
X119473000Y-105476250D01*
X119473000Y-104627000D01*
X119727000Y-104627000D01*
X119727000Y-105476250D01*
X119885750Y-105635000D01*
X121326309Y-105635000D01*
X121559698Y-105538327D01*
X121738327Y-105359699D01*
X121835000Y-105126310D01*
X121835000Y-104785750D01*
X124165000Y-104785750D01*
X124165000Y-105126310D01*
X124261673Y-105359699D01*
X124440302Y-105538327D01*
X124673691Y-105635000D01*
X126114250Y-105635000D01*
X126273000Y-105476250D01*
X126273000Y-104627000D01*
X124323750Y-104627000D01*
X124165000Y-104785750D01*
X121835000Y-104785750D01*
X121676250Y-104627000D01*
X119727000Y-104627000D01*
X119473000Y-104627000D01*
X117826250Y-104627000D01*
X117726250Y-104527000D01*
X116727000Y-104527000D01*
X116727000Y-104547000D01*
X116473000Y-104547000D01*
X116473000Y-104527000D01*
X115473750Y-104527000D01*
X115315000Y-104685750D01*
X115315000Y-105240198D01*
X113937401Y-103862599D01*
X113690839Y-103697852D01*
X113400000Y-103640000D01*
X103034798Y-103640000D01*
X103012914Y-103523691D01*
X115315000Y-103523691D01*
X115315000Y-104114250D01*
X115473750Y-104273000D01*
X116473000Y-104273000D01*
X116473000Y-103173750D01*
X116727000Y-103173750D01*
X116727000Y-104273000D01*
X117423750Y-104273000D01*
X117523750Y-104373000D01*
X119473000Y-104373000D01*
X119473000Y-103523750D01*
X119727000Y-103523750D01*
X119727000Y-104373000D01*
X121676250Y-104373000D01*
X121835000Y-104214250D01*
X121835000Y-103873690D01*
X124165000Y-103873690D01*
X124165000Y-104214250D01*
X124323750Y-104373000D01*
X126273000Y-104373000D01*
X126273000Y-103523750D01*
X126114250Y-103365000D01*
X124673691Y-103365000D01*
X124440302Y-103461673D01*
X124261673Y-103640301D01*
X124165000Y-103873690D01*
X121835000Y-103873690D01*
X121738327Y-103640301D01*
X121559698Y-103461673D01*
X121326309Y-103365000D01*
X119885750Y-103365000D01*
X119727000Y-103523750D01*
X119473000Y-103523750D01*
X119314250Y-103365000D01*
X117873691Y-103365000D01*
X117827238Y-103384241D01*
X117788327Y-103290302D01*
X117609699Y-103111673D01*
X117376310Y-103015000D01*
X116885750Y-103015000D01*
X116727000Y-103173750D01*
X116473000Y-103173750D01*
X116314250Y-103015000D01*
X115823690Y-103015000D01*
X115590301Y-103111673D01*
X115411673Y-103290302D01*
X115315000Y-103523691D01*
X103012914Y-103523691D01*
X102992402Y-103414683D01*
X102853330Y-103198559D01*
X102641130Y-103053569D01*
X102389240Y-103002560D01*
X101089240Y-103002560D01*
X100853923Y-103046838D01*
X100637799Y-103185910D01*
X100492809Y-103398110D01*
X100441800Y-103650000D01*
X100441800Y-104940000D01*
X98834802Y-104940000D01*
X103622639Y-100152163D01*
X105487443Y-100152163D01*
X105586042Y-100418965D01*
X106195582Y-100645401D01*
X106845377Y-100621341D01*
X107333958Y-100418965D01*
X107432557Y-100152163D01*
X106460000Y-99179605D01*
X105487443Y-100152163D01*
X103622639Y-100152163D01*
X104822619Y-98952183D01*
X104838659Y-99385377D01*
X105041035Y-99873958D01*
X105307837Y-99972557D01*
X106280395Y-99000000D01*
X106639605Y-99000000D01*
X107612163Y-99972557D01*
X107648099Y-99959276D01*
X108072927Y-100384846D01*
X108673453Y-100634206D01*
X109323694Y-100634774D01*
X109924655Y-100386462D01*
X110270199Y-100041520D01*
X110612927Y-100384846D01*
X111213453Y-100634206D01*
X111863694Y-100634774D01*
X112464655Y-100386462D01*
X112924846Y-99927073D01*
X113174206Y-99326547D01*
X113174774Y-98676306D01*
X112926462Y-98075345D01*
X112467073Y-97615154D01*
X111866547Y-97365794D01*
X111216306Y-97365226D01*
X110615345Y-97613538D01*
X110269801Y-97958480D01*
X109927073Y-97615154D01*
X109326547Y-97365794D01*
X108676306Y-97365226D01*
X108075345Y-97613538D01*
X107647599Y-98040539D01*
X107612163Y-98027443D01*
X106639605Y-99000000D01*
X106280395Y-99000000D01*
X106266252Y-98985858D01*
X106445858Y-98806252D01*
X106460000Y-98820395D01*
X107432557Y-97847837D01*
X107333958Y-97581035D01*
X106724418Y-97354599D01*
X106408506Y-97366296D01*
X107014802Y-96760000D01*
X115535198Y-96760000D01*
X118127758Y-99352560D01*
X118127758Y-99352560D01*
G37*
X118127758Y-99352560D02*
X118000000Y-99352560D01*
X117764683Y-99396838D01*
X117548559Y-99535910D01*
X117403569Y-99748110D01*
X117352560Y-100000000D01*
X117352560Y-101000000D01*
X117396838Y-101235317D01*
X117535910Y-101451441D01*
X117748110Y-101596431D01*
X118000000Y-101647440D01*
X121200000Y-101647440D01*
X121435317Y-101603162D01*
X121651441Y-101464090D01*
X121790890Y-101260000D01*
X124212721Y-101260000D01*
X124335910Y-101451441D01*
X124548110Y-101596431D01*
X124800000Y-101647440D01*
X126469080Y-101647440D01*
X126562599Y-101787401D01*
X127740000Y-102964802D01*
X127740000Y-103365000D01*
X126685750Y-103365000D01*
X126527000Y-103523750D01*
X126527000Y-104373000D01*
X126547000Y-104373000D01*
X126547000Y-104627000D01*
X126527000Y-104627000D01*
X126527000Y-105476250D01*
X126685750Y-105635000D01*
X127740000Y-105635000D01*
X127740000Y-105852560D01*
X124800000Y-105852560D01*
X124564683Y-105896838D01*
X124348559Y-106035910D01*
X124209110Y-106240000D01*
X121787279Y-106240000D01*
X121664090Y-106048559D01*
X121451890Y-105903569D01*
X121200000Y-105852560D01*
X118000000Y-105852560D01*
X117764683Y-105896838D01*
X117728122Y-105920365D01*
X117714090Y-105898559D01*
X117501890Y-105753569D01*
X117468510Y-105746809D01*
X117609699Y-105688327D01*
X117724728Y-105573297D01*
X117873691Y-105635000D01*
X119314250Y-105635000D01*
X119473000Y-105476250D01*
X119473000Y-104627000D01*
X119727000Y-104627000D01*
X119727000Y-105476250D01*
X119885750Y-105635000D01*
X121326309Y-105635000D01*
X121559698Y-105538327D01*
X121738327Y-105359699D01*
X121835000Y-105126310D01*
X121835000Y-104785750D01*
X124165000Y-104785750D01*
X124165000Y-105126310D01*
X124261673Y-105359699D01*
X124440302Y-105538327D01*
X124673691Y-105635000D01*
X126114250Y-105635000D01*
X126273000Y-105476250D01*
X126273000Y-104627000D01*
X124323750Y-104627000D01*
X124165000Y-104785750D01*
X121835000Y-104785750D01*
X121676250Y-104627000D01*
X119727000Y-104627000D01*
X119473000Y-104627000D01*
X117826250Y-104627000D01*
X117726250Y-104527000D01*
X116727000Y-104527000D01*
X116727000Y-104547000D01*
X116473000Y-104547000D01*
X116473000Y-104527000D01*
X115473750Y-104527000D01*
X115315000Y-104685750D01*
X115315000Y-105240198D01*
X113937401Y-103862599D01*
X113690839Y-103697852D01*
X113400000Y-103640000D01*
X103034798Y-103640000D01*
X103012914Y-103523691D01*
X115315000Y-103523691D01*
X115315000Y-104114250D01*
X115473750Y-104273000D01*
X116473000Y-104273000D01*
X116473000Y-103173750D01*
X116727000Y-103173750D01*
X116727000Y-104273000D01*
X117423750Y-104273000D01*
X117523750Y-104373000D01*
X119473000Y-104373000D01*
X119473000Y-103523750D01*
X119727000Y-103523750D01*
X119727000Y-104373000D01*
X121676250Y-104373000D01*
X121835000Y-104214250D01*
X121835000Y-103873690D01*
X124165000Y-103873690D01*
X124165000Y-104214250D01*
X124323750Y-104373000D01*
X126273000Y-104373000D01*
X126273000Y-103523750D01*
X126114250Y-103365000D01*
X124673691Y-103365000D01*
X124440302Y-103461673D01*
X124261673Y-103640301D01*
X124165000Y-103873690D01*
X121835000Y-103873690D01*
X121738327Y-103640301D01*
X121559698Y-103461673D01*
X121326309Y-103365000D01*
X119885750Y-103365000D01*
X119727000Y-103523750D01*
X119473000Y-103523750D01*
X119314250Y-103365000D01*
X117873691Y-103365000D01*
X117827238Y-103384241D01*
X117788327Y-103290302D01*
X117609699Y-103111673D01*
X117376310Y-103015000D01*
X116885750Y-103015000D01*
X116727000Y-103173750D01*
X116473000Y-103173750D01*
X116314250Y-103015000D01*
X115823690Y-103015000D01*
X115590301Y-103111673D01*
X115411673Y-103290302D01*
X115315000Y-103523691D01*
X103012914Y-103523691D01*
X102992402Y-103414683D01*
X102853330Y-103198559D01*
X102641130Y-103053569D01*
X102389240Y-103002560D01*
X101089240Y-103002560D01*
X100853923Y-103046838D01*
X100637799Y-103185910D01*
X100492809Y-103398110D01*
X100441800Y-103650000D01*
X100441800Y-104940000D01*
X98834802Y-104940000D01*
X103622639Y-100152163D01*
X105487443Y-100152163D01*
X105586042Y-100418965D01*
X106195582Y-100645401D01*
X106845377Y-100621341D01*
X107333958Y-100418965D01*
X107432557Y-100152163D01*
X106460000Y-99179605D01*
X105487443Y-100152163D01*
X103622639Y-100152163D01*
X104822619Y-98952183D01*
X104838659Y-99385377D01*
X105041035Y-99873958D01*
X105307837Y-99972557D01*
X106280395Y-99000000D01*
X106639605Y-99000000D01*
X107612163Y-99972557D01*
X107648099Y-99959276D01*
X108072927Y-100384846D01*
X108673453Y-100634206D01*
X109323694Y-100634774D01*
X109924655Y-100386462D01*
X110270199Y-100041520D01*
X110612927Y-100384846D01*
X111213453Y-100634206D01*
X111863694Y-100634774D01*
X112464655Y-100386462D01*
X112924846Y-99927073D01*
X113174206Y-99326547D01*
X113174774Y-98676306D01*
X112926462Y-98075345D01*
X112467073Y-97615154D01*
X111866547Y-97365794D01*
X111216306Y-97365226D01*
X110615345Y-97613538D01*
X110269801Y-97958480D01*
X109927073Y-97615154D01*
X109326547Y-97365794D01*
X108676306Y-97365226D01*
X108075345Y-97613538D01*
X107647599Y-98040539D01*
X107612163Y-98027443D01*
X106639605Y-99000000D01*
X106280395Y-99000000D01*
X106266252Y-98985858D01*
X106445858Y-98806252D01*
X106460000Y-98820395D01*
X107432557Y-97847837D01*
X107333958Y-97581035D01*
X106724418Y-97354599D01*
X106408506Y-97366296D01*
X107014802Y-96760000D01*
X115535198Y-96760000D01*
X118127758Y-99352560D01*
M02*
