G04 #@! TF.FileFunction,Soldermask,Top*
%FSLAX46Y46*%
G04 Gerber Fmt 4.6, Leading zero omitted, Abs format (unit mm)*
G04 Created by KiCad (PCBNEW 4.0.6-e0-6349~52~ubuntu16.10.1) date Mon May  8 18:47:24 2017*
%MOMM*%
%LPD*%
G01*
G04 APERTURE LIST*
%ADD10C,0.100000*%
%ADD11R,2.127200X2.432000*%
%ADD12O,2.127200X2.432000*%
%ADD13R,1.700000X1.900000*%
%ADD14R,3.600000X1.400000*%
%ADD15C,2.398980*%
%ADD16C,1.924000*%
G04 APERTURE END LIST*
D10*
D11*
X82780000Y-99000000D03*
D12*
X80240000Y-99000000D03*
X77700000Y-99000000D03*
D13*
X101739240Y-146100000D03*
X101739240Y-143400000D03*
X101739240Y-139600000D03*
X101739240Y-136900000D03*
X101739240Y-133100000D03*
X101739240Y-130400000D03*
X101800000Y-126600000D03*
X101800000Y-123900000D03*
X101800000Y-120100000D03*
X101800000Y-117400000D03*
X101800000Y-113600000D03*
X101800000Y-110900000D03*
X101739240Y-107100000D03*
X101739240Y-104400000D03*
X116700000Y-146250000D03*
X116700000Y-143550000D03*
X116639240Y-139600000D03*
X116639240Y-136900000D03*
X116639240Y-133100000D03*
X116639240Y-130400000D03*
X116600000Y-126600000D03*
X116600000Y-123900000D03*
X116600000Y-120100000D03*
X116600000Y-117400000D03*
X116600000Y-113600000D03*
X116600000Y-110900000D03*
X116600000Y-107100000D03*
X116600000Y-104400000D03*
D14*
X105289944Y-150000000D03*
X112089944Y-150000000D03*
X112089944Y-146000000D03*
X105289944Y-146000000D03*
X105289944Y-143500000D03*
X112089944Y-143500000D03*
X112089944Y-139500000D03*
X105289944Y-139500000D03*
X105289944Y-137000000D03*
X112089944Y-137000000D03*
X112089944Y-133000000D03*
X105289944Y-133000000D03*
X105289944Y-130500000D03*
X112089944Y-130500000D03*
X112089944Y-126500000D03*
X105289944Y-126500000D03*
X105289944Y-124000000D03*
X112089944Y-124000000D03*
X112089944Y-120000000D03*
X105289944Y-120000000D03*
X105289944Y-117500000D03*
X112089944Y-117500000D03*
X112089944Y-113500000D03*
X105289944Y-113500000D03*
X105289944Y-111000000D03*
X112089944Y-111000000D03*
X112089944Y-107000000D03*
X105289944Y-107000000D03*
X119600000Y-150000000D03*
X126400000Y-150000000D03*
X126400000Y-146000000D03*
X119600000Y-146000000D03*
X119600000Y-143500000D03*
X126400000Y-143500000D03*
X126400000Y-139500000D03*
X119600000Y-139500000D03*
X119600000Y-137000000D03*
X126400000Y-137000000D03*
X126400000Y-133000000D03*
X119600000Y-133000000D03*
X119600000Y-130500000D03*
X126400000Y-130500000D03*
X126400000Y-126500000D03*
X119600000Y-126500000D03*
X119600000Y-124000000D03*
X126400000Y-124000000D03*
X126400000Y-120000000D03*
X119600000Y-120000000D03*
X119600000Y-117500000D03*
X126400000Y-117500000D03*
X126400000Y-113500000D03*
X119600000Y-113500000D03*
X119600000Y-111000000D03*
X126400000Y-111000000D03*
X126400000Y-107000000D03*
X119600000Y-107000000D03*
X119600000Y-104500000D03*
X126400000Y-104500000D03*
X126400000Y-100500000D03*
X119600000Y-100500000D03*
D15*
X109000000Y-99000000D03*
X106460000Y-99000000D03*
X111540000Y-99000000D03*
D16*
X124250000Y-90500000D03*
X124250000Y-92500000D03*
X124250000Y-94500000D03*
X121750000Y-90500000D03*
X121750000Y-92500000D03*
X121750000Y-94500000D03*
M02*
